<svg id="Camada_1" data-name="Camada 1" xmlns="http://www.w3.org/2000/svg" viewBox="0 0 300.06 69.31"><defs><style>.cls-1{fill:#fff;}.cls-2{fill:#b73e02;}.cls-3{fill:#ff6700;}</style></defs><title>logo-tecnovix-desenvolvimento-web</title><polygon class="cls-1" points="35.8 0 0 6.39 6.03 48.48 35.88 69.31 35.88 69.31 65.75 48.18 71.64 6.39 35.8 0"/><polygon class="cls-2" points="23.34 26.93 35.88 65.33 35.8 14.54 23.34 26.93"/><polygon class="cls-3" points="47.75 26.93 35.88 65.33 35.8 14.54 47.75 26.93"/><polygon class="cls-3" points="23.34 26.93 35.8 14.54 1.18 7.37 23.34 26.93"/><polygon class="cls-2" points="47.75 26.93 35.8 14.54 70.43 7.37 47.75 26.93"/><path class="cls-1" d="M106.66,36.18a2.89,2.89,0,0,1-2.07-.66,3,3,0,0,1-.69-2.21V23.6h6.69V15.47H103.9V8.2H93.76v7.27h-3.4V23.6h3.4V35.28q0,5.14,2.56,7.33t7.15,2.17a15.54,15.54,0,0,0,3.88-.45,14.34,14.34,0,0,0,3.14-1.19V35.22a11,11,0,0,1-1.86.69A7.26,7.26,0,0,1,106.66,36.18Z" transform="translate(-2.04 -0.47)"/><path class="cls-1" d="M135.73,19.54a12.64,12.64,0,0,0-4.51-3.43,15.12,15.12,0,0,0-6.45-1.27A14.46,14.46,0,0,0,118.93,16a14,14,0,0,0-4.59,3.22,14.15,14.15,0,0,0-3,4.78,16,16,0,0,0-1.07,5.86V30a15.82,15.82,0,0,0,1.14,6.1,13.55,13.55,0,0,0,3.19,4.7,14.55,14.55,0,0,0,4.86,3,17.15,17.15,0,0,0,6.21,1.09,15,15,0,0,0,12.48-5.84l-5.58-4.62a10.51,10.51,0,0,1-3,2.23,7.93,7.93,0,0,1-3.32.69,6.68,6.68,0,0,1-4-1.17,5.91,5.91,0,0,1-2.2-3.56h19.22c0-.35,0-.7,0-1.06v-1a20.43,20.43,0,0,0-.87-6A14.34,14.34,0,0,0,135.73,19.54Zm-15.9,7.93a7.43,7.43,0,0,1,1.7-3.79,4.24,4.24,0,0,1,3.29-1.41,4.47,4.47,0,0,1,3.4,1.41,6.42,6.42,0,0,1,1.59,3.79Z" transform="translate(-2.04 -0.47)"/><path class="cls-1" d="M158.4,35.6a5.56,5.56,0,0,1-3.05.79,5.34,5.34,0,0,1-2.34-.5,5.45,5.45,0,0,1-1.8-1.38A6.55,6.55,0,0,1,150,32.44a7.76,7.76,0,0,1-.42-2.58v-.1a7.08,7.08,0,0,1,.42-2.47,6.52,6.52,0,0,1,1.17-2A5.47,5.47,0,0,1,153,23.89a5,5,0,0,1,2.25-.51,5.53,5.53,0,0,1,3.08.8,9.07,9.07,0,0,1,2.29,2.23l6.85-5.1a14.23,14.23,0,0,0-4.84-4.67,14.41,14.41,0,0,0-7.43-1.75A16.06,16.06,0,0,0,149,16.08a15,15,0,0,0-4.86,3.24,15.26,15.26,0,0,0-3.16,4.78,14.8,14.8,0,0,0-1.14,5.76V30a15,15,0,0,0,4.28,10.51,14.65,14.65,0,0,0,4.75,3.21,16.62,16.62,0,0,0,13.75-.61,15.64,15.64,0,0,0,5-4.78l-6.74-4.88A11.86,11.86,0,0,1,158.4,35.6Z" transform="translate(-2.04 -0.47)"/><path class="cls-1" d="M187.21,14.84a9.34,9.34,0,0,0-2.78.39,11,11,0,0,0-2.31,1,9.48,9.48,0,0,0-1.89,1.49,17.62,17.62,0,0,0-1.52,1.75v-4H168.57V44.2h10.14V28.64A5,5,0,0,1,179.89,25a4,4,0,0,1,3-1.22A3.73,3.73,0,0,1,185.79,25a5.27,5.27,0,0,1,1.1,3.61V44.2H197V25.4a11,11,0,0,0-2.59-7.75A9.33,9.33,0,0,0,187.21,14.84Z" transform="translate(-2.04 -0.47)"/><path class="cls-1" d="M225.75,19.24a16.28,16.28,0,0,0-11.36-4.4A16.57,16.57,0,0,0,208,16,16,16,0,0,0,203,19.27a14.75,14.75,0,0,0-3.31,4.78,14.29,14.29,0,0,0-1.2,5.81V30a14.48,14.48,0,0,0,4.46,10.54,15.64,15.64,0,0,0,5,3.21,16.75,16.75,0,0,0,6.34,1.17,16.57,16.57,0,0,0,6.37-1.2,15.64,15.64,0,0,0,5-3.24A14.89,14.89,0,0,0,229,35.68a14.5,14.5,0,0,0,1.19-5.82v-.1A14.4,14.4,0,0,0,229,24,14.19,14.19,0,0,0,225.75,19.24ZM220.39,30a6.82,6.82,0,0,1-.43,2.42,6.32,6.32,0,0,1-1.19,2,5.48,5.48,0,0,1-1.89,1.37,6.05,6.05,0,0,1-2.49.5,5.63,5.63,0,0,1-2.44-.53,6.34,6.34,0,0,1-1.94-1.4,6,6,0,0,1-1.28-2,6.78,6.78,0,0,1-.45-2.48v-.1a6.78,6.78,0,0,1,.43-2.42,6.22,6.22,0,0,1,1.19-2,5.45,5.45,0,0,1,1.89-1.37,5.89,5.89,0,0,1,2.49-.5,5.7,5.7,0,0,1,2.45.52,6.6,6.6,0,0,1,1.93,1.4,6.2,6.2,0,0,1,1.28,2,6.73,6.73,0,0,1,.45,2.47Z" transform="translate(-2.04 -0.47)"/><polygon class="cls-1" points="241.98 31.78 236.46 15 225.84 15 237.31 43.94 246.49 43.94 257.96 15 247.5 15 241.98 31.78"/><rect class="cls-1" x="258.81" y="15" width="10.14" height="28.72"/><rect class="cls-1" x="258.6" y="4.97" width="10.57" height="7.43"/><polygon class="cls-1" points="290.4 29.18 299.85 15 289.18 15 284.93 22.07 280.68 15 269.8 15 279.3 29.23 269.64 43.73 280.26 43.73 284.77 36.35 289.23 43.73 300.06 43.73 290.4 29.18"/><path class="cls-1" d="M111.1,63.25a4.47,4.47,0,0,1-1.55-.27,4.34,4.34,0,0,1-1.38-.85l.74-.89a4.21,4.21,0,0,0,1,.68,2.81,2.81,0,0,0,1.19.24,1.49,1.49,0,0,0,.91-.25.75.75,0,0,0,.33-.64v0a.9.9,0,0,0-.06-.34.85.85,0,0,0-.24-.27,1.72,1.72,0,0,0-.49-.24,6.36,6.36,0,0,0-.8-.23,7.22,7.22,0,0,1-1-.29,3,3,0,0,1-.73-.4,1.71,1.71,0,0,1-.46-.58,2.09,2.09,0,0,1-.15-.83v0a1.9,1.9,0,0,1,.67-1.47,2.23,2.23,0,0,1,.76-.42,2.93,2.93,0,0,1,1-.15,3.88,3.88,0,0,1,1.4.23,4.3,4.3,0,0,1,1.16.65l-.67.94a4.86,4.86,0,0,0-1-.54,2.68,2.68,0,0,0-1-.18,1.31,1.31,0,0,0-.84.24.73.73,0,0,0-.3.59v0a.83.83,0,0,0,.07.36.65.65,0,0,0,.25.28,2.87,2.87,0,0,0,.52.24c.22.07.49.15.83.23a7.6,7.6,0,0,1,1,.31,2.12,2.12,0,0,1,.71.42,1.49,1.49,0,0,1,.43.57,1.81,1.81,0,0,1,.15.76v0a1.93,1.93,0,0,1-.19.88,1.79,1.79,0,0,1-.51.67,2.2,2.2,0,0,1-.79.41A3.31,3.31,0,0,1,111.1,63.25Z" transform="translate(-2.04 -0.47)"/><path class="cls-1" d="M120.43,63.27a3.8,3.8,0,0,1-1.49-.28A3.46,3.46,0,0,1,117,61.05a3.64,3.64,0,0,1-.27-1.4v0a3.63,3.63,0,0,1,1-2.56A3.67,3.67,0,0,1,120.45,56a3.64,3.64,0,0,1,1.49.29,3.59,3.59,0,0,1,1.16.78,3.47,3.47,0,0,1,.75,1.15,3.64,3.64,0,0,1,.27,1.4v0a3.64,3.64,0,0,1-.27,1.4,3.49,3.49,0,0,1-.76,1.16,3.67,3.67,0,0,1-2.66,1.08Zm0-1.13a2.32,2.32,0,0,0,1-.2,2.22,2.22,0,0,0,.74-.53,2.56,2.56,0,0,0,.49-.79,2.61,2.61,0,0,0,.17-1v0a2.64,2.64,0,0,0-.17-1,2.61,2.61,0,0,0-.49-.8,2.31,2.31,0,0,0-.76-.53,2.17,2.17,0,0,0-1-.2,2.32,2.32,0,0,0-1,.19,2.22,2.22,0,0,0-.74.53,2.56,2.56,0,0,0-.49.79,2.64,2.64,0,0,0-.17,1v0a2.61,2.61,0,0,0,.17,1,2.5,2.5,0,0,0,.49.8,2.31,2.31,0,0,0,.76.53A2.18,2.18,0,0,0,120.45,62.14Z" transform="translate(-2.04 -0.47)"/><path class="cls-1" d="M127.62,56.11h1.23V62h3.7v1.12h-4.93Z" transform="translate(-2.04 -0.47)"/><path class="cls-1" d="M138.74,63.26a3.71,3.71,0,0,1-1.24-.19,2.47,2.47,0,0,1-.94-.59,2.67,2.67,0,0,1-.61-1,4,4,0,0,1-.21-1.35v-4H137v4a2.16,2.16,0,0,0,.47,1.5,1.73,1.73,0,0,0,1.32.52,1.71,1.71,0,0,0,1.3-.5,2,2,0,0,0,.48-1.47v-4h1.23v4a3.84,3.84,0,0,1-.22,1.38,2.6,2.6,0,0,1-.61,1,2.41,2.41,0,0,1-.95.6A3.77,3.77,0,0,1,138.74,63.26Z" transform="translate(-2.04 -0.47)"/><path class="cls-1" d="M147.25,64.37l.8-1.17a3.37,3.37,0,0,1-1.17-.44A3.59,3.59,0,0,1,146,62a3.4,3.4,0,0,1-.6-1.07,3.79,3.79,0,0,1-.21-1.26v0a3.69,3.69,0,0,1,.27-1.41,3.62,3.62,0,0,1,.75-1.16,3.55,3.55,0,0,1,1.15-.78A3.51,3.51,0,0,1,148.8,56a4.71,4.71,0,0,1,.88.08,3.12,3.12,0,0,1,.73.23,3,3,0,0,1,.61.34,5.85,5.85,0,0,1,.54.45l-.8.91a4,4,0,0,0-.89-.63,2.38,2.38,0,0,0-1.08-.24,2.18,2.18,0,0,0-.93.19,2.21,2.21,0,0,0-.74.54,2.27,2.27,0,0,0-.48.79,2.57,2.57,0,0,0-.17,1v0a2.64,2.64,0,0,0,.17,1,2.41,2.41,0,0,0,.48.8,2.21,2.21,0,0,0,.74.54,2.18,2.18,0,0,0,.93.2,2.39,2.39,0,0,0,1.11-.25,4.16,4.16,0,0,0,.91-.67l.8.8a4.79,4.79,0,0,1-.54.49,3.17,3.17,0,0,1-.58.37,4.08,4.08,0,0,1-.69.26,4.17,4.17,0,0,1-.83.11l-.66,1.55Z" transform="translate(-2.04 -0.47)"/><path class="cls-1" d="M158.26,63.27a3.77,3.77,0,0,1-1.49-.28,3.49,3.49,0,0,1-1.16-.78,3.82,3.82,0,0,1-.76-1.16,3.64,3.64,0,0,1-.27-1.4v0a3.59,3.59,0,0,1,1-2.56,3.83,3.83,0,0,1,1.17-.79,3.77,3.77,0,0,1,1.49-.29,3.59,3.59,0,0,1,1.48.29,3.49,3.49,0,0,1,1.16.78,3.59,3.59,0,0,1,1,2.55v0a3.64,3.64,0,0,1-.27,1.4A3.61,3.61,0,0,1,159.74,63,3.59,3.59,0,0,1,158.26,63.27Zm0-1.13a2.31,2.31,0,0,0,.95-.2,2.37,2.37,0,0,0,.75-.53,2.54,2.54,0,0,0,.48-.79,2.61,2.61,0,0,0,.18-1v0a2.65,2.65,0,0,0-.18-1,2.43,2.43,0,0,0-.49-.8,2.37,2.37,0,0,0-.75-.53,2.23,2.23,0,0,0-1-.2,2.32,2.32,0,0,0-1,.19,2.37,2.37,0,0,0-.75.53,2.54,2.54,0,0,0-.48.79,2.65,2.65,0,0,0-.18,1v0a2.61,2.61,0,0,0,.18,1,2.33,2.33,0,0,0,.49.8,2.37,2.37,0,0,0,.75.53A2.25,2.25,0,0,0,158.28,62.14Zm-1.92-6.71a3.08,3.08,0,0,1,.42-.94.86.86,0,0,1,.71-.32,1.4,1.4,0,0,1,.41.06l.39.14a3.19,3.19,0,0,0,.35.14.84.84,0,0,0,.3.06.42.42,0,0,0,.33-.12,1.19,1.19,0,0,0,.22-.38l.68.21a2.94,2.94,0,0,1-.42.92.84.84,0,0,1-.71.33,1.4,1.4,0,0,1-.41-.06,3.54,3.54,0,0,1-.39-.14l-.35-.14a.92.92,0,0,0-.3-.07.39.39,0,0,0-.33.13,1.26,1.26,0,0,0-.22.38Z" transform="translate(-2.04 -0.47)"/><path class="cls-1" d="M165.45,56.11h5.21v1.12h-4V59h3.53v1.11h-3.53V62h4v1.12h-5.26Z" transform="translate(-2.04 -0.47)"/><path class="cls-1" d="M176.67,63.25a4.49,4.49,0,0,1-1.56-.27,4.34,4.34,0,0,1-1.38-.85l.74-.89a4.21,4.21,0,0,0,1,.68,2.81,2.81,0,0,0,1.19.24,1.49,1.49,0,0,0,.91-.25.75.75,0,0,0,.33-.64v0a.9.9,0,0,0-.06-.34.85.85,0,0,0-.24-.27,1.72,1.72,0,0,0-.49-.24,6.36,6.36,0,0,0-.8-.23,6.7,6.7,0,0,1-1-.29,2.86,2.86,0,0,1-.74-.4,1.57,1.57,0,0,1-.45-.58,1.92,1.92,0,0,1-.16-.83v0a1.9,1.9,0,0,1,.67-1.47,2.23,2.23,0,0,1,.76-.42,3,3,0,0,1,1-.15,3.88,3.88,0,0,1,1.4.23,4.3,4.3,0,0,1,1.16.65l-.67.94a4.86,4.86,0,0,0-.95-.54,2.68,2.68,0,0,0-1-.18,1.31,1.31,0,0,0-.84.24.73.73,0,0,0-.3.59v0a.83.83,0,0,0,.07.36.65.65,0,0,0,.25.28,2.87,2.87,0,0,0,.52.24c.22.07.5.15.83.23a7.6,7.6,0,0,1,1,.31,2.28,2.28,0,0,1,.72.42,1.57,1.57,0,0,1,.42.57,1.81,1.81,0,0,1,.15.76v0A2.07,2.07,0,0,1,179,62a1.92,1.92,0,0,1-.52.67,2.2,2.2,0,0,1-.79.41A3.29,3.29,0,0,1,176.67,63.25Z" transform="translate(-2.04 -0.47)"/><path class="cls-1" d="M187.72,56.11H189v7h-1.23Z" transform="translate(-2.04 -0.47)"/><path class="cls-1" d="M192.84,56.11H194L197.75,61V56.11H199v7h-1l-3.87-5v5h-1.23Z" transform="translate(-2.04 -0.47)"/><path class="cls-1" d="M204.52,57.26h-2.23V56.11H208v1.15h-2.23v5.89h-1.25Z" transform="translate(-2.04 -0.47)"/><path class="cls-1" d="M211.31,56.11h5.21v1.12h-4V59h3.53v1.11h-3.53V62h4v1.12h-5.26Z" transform="translate(-2.04 -0.47)"/><path class="cls-1" d="M220.05,56.11h1.23V62H225v1.12h-4.93Z" transform="translate(-2.04 -0.47)"/><path class="cls-1" d="M228.35,56.11h1.23v7h-1.23Z" transform="translate(-2.04 -0.47)"/><path class="cls-1" d="M236.81,63.27a3.92,3.92,0,0,1-1.49-.27,3.46,3.46,0,0,1-1.16-.77,3.51,3.51,0,0,1-.74-1.14,4,4,0,0,1-.26-1.44v0a3.71,3.71,0,0,1,.27-1.4,3.62,3.62,0,0,1,.75-1.16,3.78,3.78,0,0,1,1.16-.79A3.69,3.69,0,0,1,236.8,56a5.35,5.35,0,0,1,.84.06,4.17,4.17,0,0,1,.7.19,3.14,3.14,0,0,1,.61.3,5.23,5.23,0,0,1,.56.4l-.79.94a4,4,0,0,0-.41-.31,2.7,2.7,0,0,0-.44-.24,3.09,3.09,0,0,0-.51-.15,2.84,2.84,0,0,0-.61,0,2,2,0,0,0-.9.2,2.24,2.24,0,0,0-.72.54,2.27,2.27,0,0,0-.48.79,2.56,2.56,0,0,0-.18,1v0a3,3,0,0,0,.17,1,2.24,2.24,0,0,0,.49.8,2.2,2.2,0,0,0,.75.52,2.38,2.38,0,0,0,1,.2,2.89,2.89,0,0,0,.94-.15,2.66,2.66,0,0,0,.75-.39V60.3h-1.8V59.22h3v3c-.17.14-.37.28-.58.42a4.41,4.41,0,0,1-1.47.59A5.08,5.08,0,0,1,236.81,63.27Z" transform="translate(-2.04 -0.47)"/><path class="cls-1" d="M243.36,56.11h5.21v1.12h-4V59h3.53v1.11h-3.53V62h4v1.12h-5.26Z" transform="translate(-2.04 -0.47)"/><path class="cls-1" d="M252.11,56.11h1.14L257,61V56.11h1.23v7h-1l-3.88-5v5h-1.22Z" transform="translate(-2.04 -0.47)"/><path class="cls-1" d="M263.78,57.26h-2.23V56.11h5.72v1.15H265v5.89h-1.25Z" transform="translate(-2.04 -0.47)"/><path class="cls-1" d="M270.58,56.11h5.21v1.12h-4V59h3.53v1.11H271.8V62h4v1.12h-5.26Z" transform="translate(-2.04 -0.47)"/><path class="cls-1" d="M281.79,63.25a4.23,4.23,0,0,1-2.94-1.12l.75-.89a4.21,4.21,0,0,0,1,.68,2.76,2.76,0,0,0,1.18.24,1.47,1.47,0,0,0,.91-.25.73.73,0,0,0,.34-.64v0a.74.74,0,0,0-.07-.34.66.66,0,0,0-.24-.27,1.79,1.79,0,0,0-.48-.24,6.9,6.9,0,0,0-.8-.23,7.22,7.22,0,0,1-1-.29,2.78,2.78,0,0,1-.73-.4,1.71,1.71,0,0,1-.46-.58,2.09,2.09,0,0,1-.15-.83v0a1.9,1.9,0,0,1,.67-1.47,2.23,2.23,0,0,1,.76-.42,2.93,2.93,0,0,1,1-.15,3.79,3.79,0,0,1,1.39.23,4.35,4.35,0,0,1,1.17.65l-.67.94a4.86,4.86,0,0,0-1-.54,2.72,2.72,0,0,0-1-.18,1.36,1.36,0,0,0-.85.24.73.73,0,0,0-.3.59v0a1,1,0,0,0,.07.36.76.76,0,0,0,.26.28,2.87,2.87,0,0,0,.52.24c.21.07.49.15.83.23a8.14,8.14,0,0,1,1,.31,2.23,2.23,0,0,1,.71.42,1.59,1.59,0,0,1,.43.57,1.81,1.81,0,0,1,.15.76v0a1.93,1.93,0,0,1-.19.88,1.79,1.79,0,0,1-.51.67,2.28,2.28,0,0,1-.79.41A3.31,3.31,0,0,1,281.79,63.25Z" transform="translate(-2.04 -0.47)"/></svg>